<svg xmlns="http://www.w3.org/2000/svg" width="176" height="48" viewBox="0 0 176 48">
    <g fill="none" fill-rule="evenodd">
        <g>
            <g>
                <g>
                    <g fill="#ED589D">
                        <path d="M100.91 15.114c-.048-.22-.09-.558-.195-.875-.205-.618-.464-.778-1.1-.722-.558.05-1 .273-1.204.842-.198.558-.062 1.039.369 1.42.25.22.517.44.816.576.697.316 1.11.084 1.264-.663.03-.15.028-.308.05-.578m21.048 3.099c.194-.025.385-.023.56-.075 1.933-.575 3.388-1.74 4.22-3.604.234-.519.527-1.156.016-1.657-.5-.496-1.177-.382-1.735-.1-.899.462-1.802.951-2.603 1.561-.654.499-1.215 1.15-1.72 1.81-.657.857-.318 1.69.726 1.974.177.048.362.061.536.09M90.89 25.809c0 .31-.028.622.007.93.102.934.64 1.337 1.53 1.074.522-.156 1.054-.383 1.497-.694 1.907-1.343 3.565-2.946 4.852-4.918.1-.154.196-.315.273-.483.42-.89.192-1.533-.651-2.024-.583-.338-1.144-.718-1.686-1.122-.368-.276-.676-.632-1.023-.938-.513-.45-.866-.454-1.385-.02-.164.139-.308.304-.45.465-1.945 2.204-2.806 4.834-2.964 7.73m19.853-15.145c-.86-.032-1.417-.367-1.527-1.224-.107-.847.226-1.55 1.06-1.99.488-.257 1.025-.441 1.558-.573.903-.224 1.553-.747 1.971-1.56.38-.742.683-1.524 1.068-2.264.207-.401.452-.824.788-1.103.564-.47 1.404-.399 1.972.051.586.46.794 1.106.565 1.828-.166.523-.36 1.037-.588 1.69.383.048.644.138.886.1 1.038-.154 2.097 1.074 1.35 2.323-.224.376-.617.69-1.002.915-.448.261-.97.393-1.457.582-1.262.485-2.391 1.147-3.163 2.316-.235.357-.352.676-.172 1.116.28.679.042 1.296-.448 1.785-.522.525-1.103.991-1.648 1.495-.248.228-.53.447-.69.733-1.07 1.885-2.183 3.754-2.89 5.821-.252.73-.447 1.483-.617 2.239-.129.564-.075 1.13.428 1.525.544.425 1.126.291 1.649-.012.392-.228.783-.523 1.056-.876 1.691-2.217 3.31-4.485 4.438-7.062 1.11-2.532 2.618-4.783 4.703-6.61 1.66-1.458 3.535-2.457 5.764-2.733 2.876-.36 5.088 1.93 4.596 4.792-.165.96-.48 1.861-.984 2.693-1.17 1.932-2.78 3.384-4.799 4.38-1.39.682-2.83.794-4.32.423-.09-.023-.178-.053-.266-.077-1.544-.417-2.229-.02-2.65 1.533-.207.766-.255 1.533-.006 2.296.252.764.747 1.25 1.557 1.426.963.209 1.903.08 2.843-.113 2.085-.428 3.857-1.447 5.364-2.944 1.652-1.641 3.1-3.44 4.288-5.464 2.62-4.466 4.987-9.065 7.267-13.713.462-.939.933-1.877 1.076-2.955.109-.834 1.126-1.42 1.993-1.265.817.145 1.441 1.01 1.31 1.863-.043.301-.149.603-.275.883-.792 1.784-1.562 3.578-2.413 5.335-.863 1.784-1.811 3.529-2.723 5.29-.085.166-.18.328-.25.497-.177.422-.508.898-.086 1.286.4.363.89.098 1.291-.118 2.799-1.507 5.33-3.363 7.362-5.848.413-.506.859-.872 1.551-.854 1.231.033 1.984 1.12 1.506 2.264-.162.39-.443.745-.727 1.063-2.271 2.542-4.925 4.594-7.905 6.222-.245.135-.495.26-.73.405-.741.45-1.057 1.135-.942 1.974.161 1.196.378 2.385.594 3.57.062.333.17.669.33.964.41.77 1.074.963 1.765.428.704-.545 1.41-1.132 1.954-1.83 1.199-1.536 2.294-3.153 3.432-4.737 2.006-2.793 3.97-5.62 6.658-7.823 1.933-1.582 4.02-2.872 6.475-3.465 1.064-.256 2.136-.307 3.216-.146.713.108 1.373.345 1.9.876.66.662.742 1.53.215 2.28-.513.73-1.479 1.062-2.202.577-1.09-.733-2.129-.44-3.164-.015-2.376.975-4.407 2.474-6.198 4.312-1.549 1.59-2.84 3.357-3.68 5.427-.244.6-.464 1.225-.583 1.86-.095.506-.114 1.064-.007 1.564.18.84.72 1.073 1.448.627.628-.385 1.267-.81 1.759-1.35 1.625-1.78 3.197-3.61 4.769-5.443.543-.635 1-1.343 1.536-1.982.443-.527 1.014-.806 1.728-.585.68.211 1.161.668 1.203 1.378.026.431-.125.924-.34 1.309-.732 1.312-1.295 2.681-1.523 4.17-.075.485-.1.992-.05 1.481.062.585.456.831.99.598.44-.194.886-.468 1.22-.814.703-.735 1.4-1.494 1.986-2.325 1.14-1.622 2.199-3.299 3.295-4.95.151-.234.287-.485.468-.693.574-.658 1.475-.79 2.174-.342.697.448.99 1.354.557 2.13-1.74 3.12-3.556 6.194-6.23 8.622-.612.554-1.318 1.036-2.053 1.406-1.525.776-3.045.631-4.481-.29-.415-.266-.802-.578-1.187-.887-.604-.488-1.205-.54-1.866-.102-.821.55-1.644 1.1-2.502 1.587-.81.458-1.67.827-2.632.749-1.401-.113-2.423-.84-3.12-2.047-.168-.292-.31-.597-.506-.975-.205.193-.382.345-.541.51-.581.601-1.096 1.281-1.742 1.797-1.497 1.188-3.186 1.666-5.011.844-1.868-.843-2.745-2.396-2.897-4.416-.048-.646-.137-1.294-.256-1.932-.049-.264-.193-.526-.348-.754-.417-.618-.839-.717-1.375-.208-.485.462-.916 1.01-1.257 1.588-.989 1.684-1.92 3.4-2.872 5.105-.122.216-.238.435-.374.643-.833 1.291-2.234 1.315-3.085.051-.068-.1-.128-.206-.212-.346-.558.222-1.094.448-1.637.65-1.66.613-3.363 1.019-5.142 1.02-2.208.003-3.978-.757-4.967-2.882-.037-.084-.098-.157-.177-.277-.31.371-.55.686-.816.976-1.495 1.65-3.316 2.562-5.57 2.42-1.922-.123-3.384-1.593-3.573-3.528-.124-1.29.11-2.54.469-3.764.27-.922.613-1.821.926-2.73.086-.25.176-.498.307-.877-1.014.203-1.828.516-2.392 1.266-.334.444-.618.929-.875 1.42-1.68 3.226-4.04 5.852-6.97 7.96-.596.428-1.273.77-1.956 1.038-2.56 1-5.04-.172-5.962-2.78-.1-.282-.185-.57-.313-.969-.26.302-.455.531-.653.75-.746.829-1.439 1.713-2.248 2.474-1.605 1.511-3.789 1.812-5.56.811-1.575-.892-2.347-2.312-2.515-4.097-.06-.647-.093-1.302-.226-1.936-.121-.578-.345-1.209-.977-1.367-.625-.155-1.003.391-1.35.813-.313.377-.565.812-.81 1.24-.993 1.753-1.963 3.519-2.959 5.27-.725 1.273-1.359 1.463-2.753.937-.232-.086-.527-.023-.79.005-.64.072-1.279.241-1.918.23-1.312-.021-2.371-.597-3.122-1.704-.135-.2-.263-.403-.443-.678-.303.292-.546.572-.83.793-.807.618-1.574 1.316-2.458 1.793-1.536.824-3.096.666-4.558-.29-.387-.252-.744-.552-1.115-.83-.772-.58-1.12-.608-1.933-.104-.814.501-1.6 1.057-2.43 1.53-.835.477-1.718.863-2.717.771-1.482-.136-2.504-.952-3.19-2.242-.156-.292-.289-.598-.443-.914-.862.769-1.657 1.5-2.48 2.196-.82.694-1.778 1.103-2.831 1.293-1.964.352-3.323-.571-3.724-2.534-.229-1.119-.084-2.231.1-3.33.345-2.062 1.011-4.026 1.877-5.926 1.509-3.307 3.39-6.408 5.162-9.57 1.15-2.053 2.178-4.174 3.275-6.256.2-.38.421-.766.713-1.074.522-.554 1.257-.65 1.861-.325.599.324.996 1.024.874 1.709-.081.45-.238.904-.445 1.314-.674 1.326-1.378 2.636-2.082 3.945-2.083 3.878-4.22 7.725-6.23 11.64-.826 1.618-1.398 3.373-2.032 5.086-.154.415-.166.923-.114 1.37.072.621.53.803 1.084.454.387-.246.744-.555 1.077-.873 2.05-1.956 3.661-4.267 5.298-6.565 1.793-2.52 3.64-5.008 6.07-6.974 1.966-1.594 4.078-2.911 6.574-3.472 1.247-.281 2.513-.36 3.747.051.452.151.902.414 1.259.735.688.617.73 1.53.193 2.27-.522.721-1.483 1.03-2.21.542-1.023-.682-2.006-.443-2.994-.06-1.83.711-3.463 1.767-4.944 3.054-2.173 1.891-3.999 4.06-5.085 6.77-.31.77-.476 1.6-.658 2.412-.065.29-.026.626.044.922.21.882.74 1.144 1.5.677.627-.386 1.261-.817 1.753-1.356 1.604-1.759 3.16-3.563 4.708-5.371.564-.658 1.035-1.394 1.597-2.055.446-.525 1.022-.795 1.733-.558.678.224 1.152.687 1.185 1.396.018.432-.145.92-.36 1.306-.732 1.313-1.28 2.686-1.517 4.172-.068.426-.096.869-.063 1.298.057.782.499 1.036 1.205.678.406-.207.793-.49 1.115-.813.543-.55 1.075-1.123 1.529-1.744 1.372-1.872 2.656-3.792 3.703-5.888 1.192-2.38 2.605-4.65 3.913-6.972.233-.415.434-.852.704-1.389-.951-.037-1.508-.381-1.63-1.228-.121-.856.203-1.547 1.043-1.997.485-.259 1.021-.438 1.555-.575.93-.239 1.604-.78 2.024-1.631.382-.777.74-1.567 1.075-2.364.364-.866 1.01-1.31 1.856-1.218 1.086.114 1.745 1.093 1.428 2.142-.108.356-.27.695-.376 1.052-.06.195-.06.408-.103.723.366.017.66.028.954.044 1.026.053 1.655.98 1.331 1.97-.181.557-.529.982-1.068 1.22-.421.186-.848.37-1.287.516-1.74.585-3.068 1.618-3.955 3.285-1.166 2.189-2.515 4.277-3.642 6.482-.893 1.754-1.884 3.492-2.224 5.483-.012.059-.036.118-.047.18-.121.667-.16 1.33.49 1.758.599.392 1.212.19 1.737-.162.401-.27.792-.616 1.06-1.012 1.465-2.152 3.037-4.246 4.298-6.514 2.484-4.466 4.806-9.025 7.16-13.565.508-.981.988-1.985 1.146-3.125.117-.832 1.124-1.352 2.036-1.186.78.142 1.37.965 1.262 1.802-.038.271-.122.546-.236.8-.818 1.84-1.61 3.692-2.488 5.503-.902 1.868-1.9 3.692-2.842 5.542-.231.456-.649.995-.208 1.454.49.51 1.054.044 1.513-.207 2.731-1.496 5.21-3.322 7.187-5.772.487-.603 1.05-.943 1.84-.781 1.051.21 1.611 1.174 1.208 2.179-.157.391-.43.754-.712 1.072-2.308 2.594-5.013 4.678-8.056 6.328-.324.175-.662.348-.94.588-.534.457-.713 1.08-.61 1.765.175 1.163.368 2.324.58 3.48.06.335.16.671.315.97.415.81 1.091 1 1.82.452.614-.459 1.209-.975 1.71-1.554.748-.863 1.453-1.775 2.096-2.721 1.43-2.097 2.815-4.221 4.205-6.345 1.646-2.519 3.598-4.728 6.172-6.329.338-.212.646-.474.965-.719 1.978-1.507 5.025-1.273 6.285 1.533.391.872.643 1.808.935 2.722.394 1.247.499 1.306 1.679.801 2.665-1.134 3.246-1.696 4.48-4.348.083-.183.111-.394.181-.658M12.692 47.835c-1.781.028-3.502-.287-5.144-.977-3.581-1.507-5.969-4.1-6.923-7.936C-.496 34.42.242 30.285 3.22 26.68c2.307-2.79 5.329-4.156 8.931-4.122.851.008 1.728.16 2.544.41 3.435 1.042 5.375 4.317 4.739 7.914-.082.456-.194.91-.336 1.351-.159.493-.488.852-.975 1.057-.94.39-1.782.021-1.994-.983-.126-.595-.051-1.232-.1-1.848-.054-.675-.065-1.37-.238-2.019-.326-1.201-1.152-1.955-2.372-2.233-2.186-.502-4.23-.201-6.05 1.182-3.918 2.97-4.953 8.891-2.32 13.056 1.571 2.49 3.89 3.696 6.713 3.859 5.081.294 9.098-1.779 12.079-5.895.926-1.278 1.762-2.621 2.191-4.177.98-3.56.238-6.704-2.28-9.38-1.122-1.192-2.37-2.265-3.521-3.434-.625-.634-1.232-1.31-1.74-2.043-1.834-2.648-2.007-5.48-.697-8.39 2.024-4.492 7.607-6.738 12.007-4.876 1.397.592 2.553 1.5 3.423 2.75 2.31 3.324.502 8.166-3.393 9.05-1.156.266-2.332.205-3.48-.112-.288-.08-.577-.233-.815-.418-.564-.446-.748-1.072-.576-1.752.168-.656.642-1.076 1.318-1.138.452-.046.916.034 1.375.07.397.03.8.14 1.19.099.35-.038.736-.165 1.011-.376 1.168-.897 1.243-2.712.232-3.786-1.987-2.108-6.368-1.997-8.176.45-1.754 2.373-1.84 4.8.046 7.053.929 1.108 2.008 2.105 3.118 3.034 1.78 1.484 3.052 3.316 4.013 5.394.488 1.05.677 2.176.773 3.333.608 7.375-4.681 14.142-10.881 16.751-2.014.849-4.093 1.36-6.287 1.325" transform="translate(-139 -3434) translate(-277 2218) translate(416 1216)"/>
                    </g>
                    <g>
                        <path fill="#020303" d="M4.576 4.414c.538 0 .88-.302.88-.768v-.013c0-.492-.33-.762-.887-.762H3.475v1.543h1.1zM2.722 2.543c0-.23.166-.407.38-.407H4.63c.539 0 .96.171 1.236.46.226.25.355.59.355.991V3.6c0 .735-.398 1.181-.973 1.372l.82 1.11c.073.097.122.183.122.308 0 .223-.177.374-.36.374-.172 0-.282-.085-.368-.21L4.422 5.13h-.947v1.233c0 .223-.166.4-.374.4-.213 0-.379-.177-.379-.4v-3.82z" transform="translate(-139 -3434) translate(-277 2218) translate(416 1216) translate(167 5)"/>
                        <path fill="#000" d="M4.376.535C2.215.535.456 2.293.456 4.454s1.759 3.92 3.92 3.92c2.16 0 3.92-1.759 3.92-3.92S6.535.534 4.375.534m0 8.26c-2.393 0-4.34-1.947-4.34-4.34S1.983.114 4.376.114c2.392 0 4.339 1.947 4.339 4.34s-1.947 4.34-4.34 4.34" transform="translate(-139 -3434) translate(-277 2218) translate(416 1216) translate(167 5)"/>
                    </g>
                </g>
            </g>
        </g>
    </g>
</svg>
